<svg xmlns="http://www.w3.org/2000/svg" viewBox="0 0 64 64" width="64" height="64">
  <rect width="64" height="64" rx="14" fill="#3470FF"/>
  <path fill="#fff" d="M14 36v6a2 2 0 0 0 2 2h3a3 3 0 0 0 3-3v-1h20v1a3 3 0 0 0 3 3h3a2 2 0 0 0 2-2v-6a4 4 0 0 0-2.4-3.67l-2.93-7.05A6 6 0 0 0 39.13 21H24.87a6 6 0 0 0-5.54 3.69l-2.93 7.04A4 4 0 0 0 14 36Zm6.5-3 2.65-6.36A2 2 0 0 1 25 25.4h14a2 2 0 0 1 1.85 1.24L43.5 33Zm1 5.5a2.5 2.5 0 1 1 0-5 2.5 2.5 0 0 1 0 5Zm21 0a2.5 2.5 0 1 1 0-5 2.5 2.5 0 0 1 0 5Z"/>
</svg>
